<?xml version="1.0" encoding="utf-8"?>
<!-- Generator: Adobe Illustrator 21.0.2, SVG Export Plug-In . SVG Version: 6.00 Build 0)  -->
<svg version="1.1" id="Layer_1" xmlns="http://www.w3.org/2000/svg" xmlns:xlink="http://www.w3.org/1999/xlink" x="0px" y="0px"
	 viewBox="0 0 201 193" style="enable-background:new 0 0 201 193;" xml:space="preserve">
<style type="text/css">
	.st0{fill:#BBBCC4;}
	.st1{fill:#1A1C2D;}
</style>
<g>
	<g>
		<g>
			<path class="st1" d="M26.2,104.5c0.1,0.1,0.2,0.2,0.3,0.3c0.8,0.8,2,0.9,2.9,0.4c6-3.2,11.7-6.9,17.3-10.7
				c3.9-2.6,10.9-5.7,12-10.6c0.2-1-0.4-1.8-1.4-1.9c-5-0.3-10.3,5.4-14.2,8.1c-5.3,3.6-10.8,7.1-16.1,10.8
				c-0.9,0.6-1.4,1.7-1.1,2.7C26,103.9,26,104.3,26.2,104.5L26.2,104.5z"/>
		</g>
	</g>
	<g>
		<g>
			<path class="st1" d="M25.4,102.8c-0.1,0.3-0.2,0.5-0.3,0.8c-0.3,0.9,0,2.1,0.7,2.7c4.8,4.5,10,8.6,15.2,12.6
				c5.4,4.1,10.9,9,17.1,11.9c2.7,1.3,5.7-2,3.3-4.3c-4.7-4.5-10.6-7.9-15.7-11.8c-5.5-4.2-10.8-8.7-16.4-12.8c-0.8-0.6-2-0.4-2.9,0
				C26,102.1,25.6,102.3,25.4,102.8L25.4,102.8z"/>
		</g>
	</g>
	<g>
		<g>
			<path class="st1" d="M84,132.8c4-2.3,6.3-6.9,9-10.5c3.2-4.4,6.5-8.8,9.7-13.3c6.4-8.9,12.7-17.9,18.9-26.9
				c2.3-3.3-3.4-6.7-5.4-3.2c-0.3,0.6-0.6,1.1-1,1.6c-0.8,1.3,0.2,3.2,1.8,3.1c0.6,0,1.3-0.1,1.9-0.1c-0.9-1.6-1.8-3.1-2.7-4.7
				c-6.1,8.8-12.2,17.5-18.4,26.1c-3,4.2-6,8.4-9,12.6c-2.8,3.9-7,8-8.1,12.7C80.2,132.2,82.2,133.9,84,132.8L84,132.8z"/>
		</g>
	</g>
	<g>
		<g>
			<path class="st1" d="M138.5,83.6c0.6,4.9,8,7.2,11.8,9.5c6,3.7,11.8,7.7,17.4,11.9c3.3,2.4,6.4-3.1,3.2-5.5
				c-5.6-4.2-11.4-8.2-17.4-11.8c-3.8-2.3-9.8-7.7-14.2-5.4C138.8,82.6,138.4,83.2,138.5,83.6L138.5,83.6z"/>
		</g>
	</g>
	<g>
		<g>
			<path class="st1" d="M140.5,130.1c5.7-3.4,11-7.6,16.2-11.8c5.4-4.3,11.6-8.6,15.9-13.9c2.2-2.7-1.7-6.5-3.8-3.8
				c-0.2,0.2-0.4,0.5-0.6,0.7c-0.6,0.8-0.7,1.7,0,2.5c0.2,0.2,0.4,0.4,0.6,0.6c0.2-1.4,0.4-2.8,0.5-4.2c-5.5,3.6-10.2,8.7-15.4,12.8
				c-5.5,4.4-11.2,8.5-16.7,13C135,127.9,138,131.6,140.5,130.1L140.5,130.1z"/>
		</g>
	</g>
</g>
<g>
	<g>
		<g>
			<path class="st1" d="M185.1,178c-19.5,0-39,0-58.5,0c-30.9,0-61.9,0-92.8,0c-7.2,0-14.4,0-21.6,0c0.8,0.8,1.7,1.7,2.5,2.5
				c0-19.5,0-39,0-58.5c0-30.9,0-61.9,0-92.8c0-7.2,0-14.4,0-21.6c-0.8,0.8-1.7,1.7-2.5,2.5c19.5,0,39,0,58.5,0
				c30.9,0,61.9,0,92.8,0c7.2,0,14.4,0,21.6,0c-0.8-0.8-1.7-1.7-2.5-2.5c0,19.5,0,39,0,58.5c0,30.9,0,61.9,0,92.8
				c0,7.2,0,14.4,0,21.6c0,3.2,5,3.2,5,0c0-19.5,0-39,0-58.5c0-30.9,0-61.9,0-92.8c0-7.2,0-14.4,0-21.6c0-1.4-1.1-2.5-2.5-2.5
				c-19.5,0-39,0-58.5,0C95.6,5,64.6,5,33.7,5c-7.2,0-14.4,0-21.6,0c-1.4,0-2.5,1.1-2.5,2.5c0,19.5,0,39,0,58.5
				c0,30.9,0,61.9,0,92.8c0,7.2,0,14.4,0,21.6c0,1.4,1.1,2.5,2.5,2.5c19.5,0,39,0,58.5,0c30.9,0,61.9,0,92.8,0c7.2,0,14.4,0,21.6,0
				C188.3,183,188.3,178,185.1,178z"/>
		</g>
	</g>
	<g>
		<g>
			<path class="st1" d="M12.1,38.5c19.5,0,39,0,58.5,0c30.9,0,61.9,0,92.8,0c7.2,0,14.4,0,21.6,0c3.2,0,3.2-5,0-5
				c-19.5,0-39,0-58.5,0c-30.9,0-61.9,0-92.8,0c-7.2,0-14.4,0-21.6,0C8.8,33.5,8.8,38.5,12.1,38.5L12.1,38.5z"/>
		</g>
	</g>
	<g>
		<g>
			<path class="st1" d="M34.2,21.5c-0.3,5.3-8.2,5.3-8.2,0C25.9,16.2,33.9,16.2,34.2,21.5c0.1,2.4,3.9,2.4,3.8,0
				c-0.2-4.3-3.4-7.9-7.9-7.9c-4.3,0-7.9,3.6-7.9,7.9c0,4.2,3.4,7.7,7.5,7.9c4.6,0.2,8-3.5,8.2-7.9C38.1,19.1,34.3,19.1,34.2,21.5z"
				/>
		</g>
	</g>
	<g>
		<g>
			<path class="st1" d="M53.2,21.5c-0.3,5.3-8.2,5.3-8.2,0C44.9,16.2,52.9,16.2,53.2,21.5c0.1,2.4,3.9,2.4,3.8,0
				c-0.2-4.3-3.4-7.9-7.9-7.9c-4.3,0-7.9,3.6-7.9,7.9c0,4.2,3.4,7.7,7.5,7.9c4.6,0.2,8-3.5,8.2-7.9C57.1,19.1,53.3,19.1,53.2,21.5z"
				/>
		</g>
	</g>
	<g>
		<g>
			<path class="st1" d="M72.2,21.5c-0.3,5.3-8.2,5.3-8.2,0C63.9,16.2,71.9,16.2,72.2,21.5c0.1,2.4,3.9,2.4,3.8,0
				c-0.2-4.3-3.4-7.9-7.9-7.9c-4.3,0-7.9,3.6-7.9,7.9c0,4.2,3.4,7.7,7.5,7.9c4.6,0.2,8-3.5,8.2-7.9C76.1,19.1,72.3,19.1,72.2,21.5z"
				/>
		</g>
	</g>
</g>
</svg>
