<?xml version="1.0" encoding="utf-8"?>
<!-- Generator: Adobe Illustrator 21.0.2, SVG Export Plug-In . SVG Version: 6.00 Build 0)  -->
<svg version="1.1" id="Layer_1" xmlns="http://www.w3.org/2000/svg" xmlns:xlink="http://www.w3.org/1999/xlink" x="0px" y="0px"
	 viewBox="0 0 126 173" style="enable-background:new 0 0 126 173;" xml:space="preserve">
<style type="text/css">
	.st0{fill:#BBBCC4;}
	.st1{fill:#1A1C2D;}
</style>
<g>
	<g>
		<g>
			<path class="st1" d="M61.8,10.8c-0.1,0.1-0.3,0.3-0.4,0.4c-0.8,0.9-0.9,1.9-0.4,3c14,31.1,29,61.5,41.9,93
				c1.3,3.1,6.4,1.8,5.1-1.4c-12.3-32.2-28-63-42.8-94.1c-0.4-0.8-1.3-1.2-2.1-1.2C62.7,10.5,62.1,10.4,61.8,10.8L61.8,10.8z"/>
		</g>
	</g>
	<g>
		<g>
			<path class="st1" d="M103.4,104.5c-4,1.2-6.8,1.9-9.8,5.1c-3.8,4-6.9,8.7-8.3,14c-1.2,4.5-1.1,9.3-0.7,13.9
				c0.6,6.2,0.7,13.7,2.8,19.6c0.9,2.4,4,1.9,4.3-0.6c1.1-9.4-3.2-18.9-1.9-28.5c0.6-4.9,2.8-9.2,6-12.9c2.9-3.4,4.9-4.3,9-5.6
				C107.9,108.5,106.6,103.5,103.4,104.5L103.4,104.5z"/>
		</g>
	</g>
	<g>
		<g>
			<path class="st1" d="M42.7,157.3c3.4,2.8,9.2,1.3,13.4,1.2c3.2,0,6.5,0,9.7,0c3.1,0.1,6.2,0.2,9.3,0.3c5.2,0.1,11.1,1,15.9-1.1
				c0.9-0.4,0.9-1.9,0-2.3c-4.7-2-10.4-1.3-15.4-1.4c-3.3-0.1-6.5-0.2-9.8-0.3c-3.1-0.1-6.2-0.1-9.2,0c-4.3,0.1-10.7-1.1-14,2
				C42.3,156.1,42.3,156.9,42.7,157.3L42.7,157.3z"/>
		</g>
	</g>
	<g>
		<g>
			<path class="st1" d="M22,110.5c7.5,5,13.2,10.1,16.5,18.7c1.7,4.3,2.7,8.8,3.1,13.4c0.4,4.2-0.3,8.4-0.2,12.6c0,1,0.7,2,1.7,2.2
				c0.2,0.1,0.4,0.1,0.6,0.1c1,0.1,1.9-0.8,2.2-1.7c3-9.1,0.4-20.7-3.3-29.2C39,117.9,32.7,111,24,107.1
				C21.7,106.1,19.9,109.1,22,110.5L22,110.5z"/>
		</g>
	</g>
	<g>
		<g>
			<path class="st1" d="M59.7,9.7c-8.5,15.6-15.5,32.2-22.4,48.6c-3.4,8.1-6.6,16.2-9.6,24.4c-1.6,4.2-3.1,8.5-4.6,12.7
				c-1.5,4.2-3.7,8.6-3.6,13.1c0,1.5,2.2,2.8,3.4,1.4c2.6-3.3,3.5-7.4,4.8-11.3c1.4-4,2.8-8,4.3-11.9c3.1-8.5,6.4-17,9.9-25.4
				c6.9-16.8,15-33.1,22-49.9C64.8,9,60.9,7.4,59.7,9.7L59.7,9.7z"/>
		</g>
	</g>
	<g>
		<g>
			<path class="st1" d="M61,14.6C61,14.6,61,14.5,61,14.6C61,14.5,61,14.6,61,14.6L61,14.6z"/>
		</g>
	</g>
	<g>
		<g>
			<path class="st1" d="M61.6,8.6c-3.6,2.1-2.4,10.1-2.4,13.6c-0.2,6.8-0.3,13.7-0.2,20.5C59,49.2,59,55.6,59,62
				c0,3.6-0.1,7.3-0.1,10.9c0,3.2-0.6,5.7,1.2,8.5c0.7,1.1,2.1,1,2.9,0c1.9-2.6,1.5-5.3,1.5-8.5c0.1-3.3,0.1-6.7,0.1-10
				c0-6.7-0.1-13.4-0.2-20.1c-0.1-6.5-0.2-13.1-0.2-19.6c0-3.8,1.8-12.1-1.8-14.6C62.1,8.5,61.8,8.5,61.6,8.6L61.6,8.6z"/>
		</g>
	</g>
	<g>
		<g>
			<path class="st1" d="M62,78.9c-7.8-1.9-12.9,6.9-13.4,13.5c-0.7,8.8,5.4,15.2,14.1,15.8c8.9,0.6,16.9-5.2,16.7-14.7
				c-0.2-9.2-9.1-16.6-18.2-14.7c-2,0.4-1.9,3.4,0,3.9c5.9,1.5,12.3,3.1,12.9,10.4c0.6,6.8-5.2,10.4-11.5,9.8
				C50.4,101.7,52,85.5,62,82.1C63.5,81.6,63.7,79.3,62,78.9L62,78.9z"/>
		</g>
	</g>
	<g>
		<g>
			<path class="st1" d="M44.8,133.9c5.7,0.2,11.4,0,17.1-0.4c2.9-0.2,5.7-0.3,8.6-0.3c5.1-0.1,12.4,1.3,16.8-1.3c1-0.6,1-2.2,0-2.8
				c-4.5-2.6-11.7-1.2-16.8-1.1c-2.9,0.1-5.7,0.2-8.6,0.3c-5.7,0.4-11.4,0.5-17.1,0.7C41.8,129.2,41.8,133.8,44.8,133.9L44.8,133.9z
				"/>
		</g>
	</g>
</g>
</svg>
