<?xml version="1.0" encoding="utf-8"?>
<!-- Generator: Adobe Illustrator 21.0.2, SVG Export Plug-In . SVG Version: 6.00 Build 0)  -->
<svg version="1.1" id="Layer_1" xmlns="http://www.w3.org/2000/svg" xmlns:xlink="http://www.w3.org/1999/xlink" x="0px" y="0px"
	 viewBox="0 0 150 170" style="enable-background:new 0 0 150 170;" xml:space="preserve">
<style type="text/css">
	.st0{fill:#1A1C2D;}
</style>
<g>
	<g>
		<path class="st0" d="M54.2,16.8c-21.7-1.7-41.6,12.1-48,32.7c-5.7,18.2-1.2,39.8,12.9,53c15.9,14.9,43.1,16.9,61.3,5
			c16.8-11,23.4-32.1,20.2-51.4c-1.8-10.7-6.8-21-14.8-28.4C77.6,20,65,14.4,53.5,16.5c-2,0.4-1.9,3.5,0,3.9c9.5,2,18.4,3,26.2,9.2
			c6.7,5.3,11.4,12.9,14,21c5.1,16.4,1.8,36.1-11,48.2c-14.2,13.5-38.9,14.6-55.1,4.1C12.9,93.2,6.3,74.2,9.2,57.1
			c1.6-9.5,6-18.4,13-25c8.9-8.3,20.2-10.9,31.9-12C56.2,19.8,56.3,16.9,54.2,16.8L54.2,16.8z"/>
	</g>
</g>
<g>
	<g>
		<path class="st0" d="M89,94.5c-0.1,0.3-0.2,0.5-0.3,0.8c-0.3,0.8,0,1.9,0.6,2.4c4.2,3.7,8.1,7.6,12.1,11.6
			c2.3,2.3,5.9-1.3,3.6-3.6c-4-3.9-8-7.8-12.1-11.5c-0.8-0.7-2-1-3-0.4C89.5,94,89.2,94.1,89,94.5L89,94.5z"/>
	</g>
</g>
<g>
	<g>
		<path class="st0" d="M80.5,104.4c-0.1,0.3-0.2,0.5-0.3,0.8c-0.3,0.8,0,1.9,0.6,2.4c4.2,3.7,8.1,7.6,12.1,11.6
			c2.3,2.3,5.9-1.3,3.6-3.6c-4-3.9-8-7.8-12.1-11.5c-0.8-0.7-2-1-3-0.4C80.9,103.9,80.6,104,80.5,104.4L80.5,104.4z"/>
	</g>
</g>
<g>
	<g>
		<path class="st0" d="M94.6,123.6c3.4-3.2,6.4-6.8,9.5-10.3c2.3-2.6,6.3-5.4,7.1-8.9c0.2-1.1-0.6-1.8-1.6-1.6
			c-3.6,0.5-6.3,4.7-8.6,7.3c-3.1,3.5-6.2,7-9.1,10.6C90.2,122.7,92.7,125.4,94.6,123.6L94.6,123.6z"/>
	</g>
</g>
<g>
	<g>
		<path class="st0" d="M107.9,105.1c-0.7,4.2,4.5,7.3,7.3,9.9c2.9,2.7,5.8,5.3,8.8,7.8c2.8,2.4,5.6,4.8,8.3,7.2
			c3.8,3.5,7.5,8.9,12.4,10.6c1.3,0.5,2.8-1,2.3-2.3c-1.7-4.7-6.9-8.3-10.6-11.6c-2.9-2.6-5.8-5.1-8.8-7.6c-2.8-2.4-5.7-4.8-8.4-7.3
			c-2.9-2.6-6.4-8.2-10.6-7.4C108.3,104.4,108,104.7,107.9,105.1L107.9,105.1z"/>
	</g>
</g>
<g>
	<g>
		<path class="st0" d="M132.8,157c3.5-0.4,5.9-5.2,7.9-7.8c1.5-1.9,2.9-3.9,4.2-5.9c1.2-1.7,2.4-2.8,1.6-5c-0.2-0.5-0.7-1.1-1.4-1
			c-3.6,0.4-5.4,5.4-7.4,8.1c-1.5,2-3,4.1-4.6,6c-1.1,1.4-2.1,2.2-1.9,4C131.4,156.3,131.9,157.1,132.8,157L132.8,157z"/>
	</g>
</g>
<g>
	<g>
		<path class="st0" d="M91.5,123.1c-0.1,0.2-0.1,0.5-0.2,0.7c-0.2,0.8,0,1.8,0.6,2.3c7,5.9,13.6,12.1,20.3,18.2
			c3.2,2.9,6.3,5.8,9.5,8.6c2.8,2.5,5.6,6.1,9.4,6.8c1.2,0.2,2.8-0.8,2.2-2.2c-1.4-3.7-5-5.8-7.9-8.3c-3.2-2.8-6.4-5.7-9.5-8.6
			c-6.7-6.1-13.6-12.2-20.7-17.9c-0.9-0.7-1.9-0.9-2.9-0.4C92,122.5,91.6,122.6,91.5,123.1L91.5,123.1z"/>
	</g>
</g>
<g>
	<g>
		<path class="st0" d="M53,28.4c-16.4-1.7-31.6,9.1-36.7,24.5c-4.6,14.1-1.1,31,9.9,41.2c12.2,11.3,32.7,12.8,46.7,3.9
			c13-8.3,18.3-24.5,15.9-39.3c-1.3-8.3-5.2-16.3-11.4-22.1c-6.3-5.8-16.4-10.6-25-8.4c-2,0.5-1.9,3.4,0,3.9c7,2,13.6,2.3,19.6,7
			c5,4,8.5,9.7,10.4,15.7C86,67,83.5,81.6,74,90.5c-10.7,10-29.3,10.7-41.2,2.5c-10.6-7.2-15.2-20.9-13.3-33.3
			c1.1-7.2,4.4-14,9.8-19c6.6-6.2,15-7.9,23.7-9C55.1,31.4,55.1,28.6,53,28.4L53,28.4z"/>
	</g>
</g>
</svg>
