<?xml version="1.0" encoding="utf-8"?>
<!-- Generator: Adobe Illustrator 21.0.2, SVG Export Plug-In . SVG Version: 6.00 Build 0)  -->
<svg version="1.1" id="Layer_1" xmlns="http://www.w3.org/2000/svg" xmlns:xlink="http://www.w3.org/1999/xlink" x="0px" y="0px"
	 viewBox="0 0 272 450" style="enable-background:new 0 0 272 450;" xml:space="preserve">
<style type="text/css">
	.st0{fill:#BBBCC4;}
	.st1{fill:#1A1C2D;}
</style>
<path class="st0" d="M111.7,418.7l42.1-2.3l0.6,5.1c26.3-0.6,53.4-1.1,54-7c47,0,27,27-20,27c-53,0-133,3-109-10
	C108.6,436.2,120.3,432.4,111.7,418.7z"/>
<g>
	<g>
		<g>
			<path class="st1" d="M70.1,32.2c6,6.8,14.6,11.7,23.1,14.4c7.6,2.4,18.4,4.5,26,1.3c1.1-0.5,0.4-1.9-0.5-2c-4-0.5-8.2,0.3-12.2,0
				c-4.2-0.3-8.3-1.1-12.4-2.3c-8.6-2.6-15.5-7.2-22.4-13C70.6,29.6,69.2,31.1,70.1,32.2L70.1,32.2z"/>
		</g>
	</g>
	<g>
		<g>
			<path class="st1" d="M68,36.6c2.3,3,5.4,5.5,8.7,7.4c2.8,1.7,6.6,3.7,10,3.4c0.9-0.1,1.2-1.1,0.4-1.6c-2.6-1.9-6-2.7-8.8-4.4
				c-3.1-1.8-5.7-4.2-8.3-6.7C68.7,33.5,67,35.3,68,36.6L68,36.6z"/>
		</g>
	</g>
	<g>
		<g>
			<path class="st1" d="M103.9,49.1c3.5,5.2,12.6,9.2,18.8,7.9c1.1-0.2,1-1.9,0-2.2c-2.9-0.9-6-1-8.9-2.1c-3.2-1.2-5.7-3.3-8.6-4.9
				C104.4,47.4,103.3,48.3,103.9,49.1L103.9,49.1z"/>
		</g>
	</g>
	<g>
		<g>
			<path class="st1" d="M109.5,56c2.6,7.3,6.1,14.6,10.5,21.1c3,4.5,7,9.7,12.6,10.7c1.4,0.2,2.3-1.5,1-2.3
				c-11.5-7.1-15.7-18.9-21.7-30.5C111.3,53.6,109,54.5,109.5,56L109.5,56z"/>
		</g>
	</g>
	<g>
		<g>
			<path class="st1" d="M113,65.8c5.4,11.1,7.1,26.1-5.3,33.4c-5.5,3.2-12.3,2.7-18.1,0.6c-5.2-1.9-9.2-5.7-14.2-7.8
				c-1.2-0.5-1.8,1.2-1.1,1.9c8.3,9.8,26.2,15,37.1,6.8c11.2-8.5,11.7-25.2,3.8-36.1C114.2,63.3,112.3,64.3,113,65.8L113,65.8z"/>
		</g>
	</g>
	<g>
		<g>
			<path class="st1" d="M76.9,60.1c0.5,2.1,1.5,4.1,2.5,6c0.9,1.7,1.9,4,3.7,4.9c0.8,0.4,2-0.1,1.9-1.1c-0.2-1.9-1.6-3.5-2.6-5.1
				c-1.1-1.9-1.9-3.9-3-5.8C78.7,57.5,76.5,58.5,76.9,60.1L76.9,60.1z"/>
		</g>
	</g>
	<g>
		<g>
			<path class="st1" d="M99.6,54.8c0.8,1.9,1.9,3.7,2.9,5.4c0.8,1.3,1.6,3.4,3.3,3.6c0.5,0.1,1-0.1,1.2-0.7c0.5-1.6-0.8-3.2-1.6-4.6
				c-1-1.8-2-3.6-3.2-5.3C101,51.8,98.8,53.1,99.6,54.8L99.6,54.8z"/>
		</g>
	</g>
	<g>
		<g>
			<path class="st1" d="M96.7,77.7C96.7,77.7,96.7,77.6,96.7,77.7C96.6,77.6,96.6,77.7,96.7,77.7L96.7,77.7z"/>
		</g>
	</g>
	<g>
		<g>
			<path class="st1" d="M97.3,78.7c2.6-1.8,5.8-4.9,5.7-8.4c0-0.5-0.7-0.9-1.1-0.5c-1,1-1.6,2.3-2.4,3.5c-0.9,1.3-2,2.4-3.3,3.3
				C94.8,77.5,96,79.6,97.3,78.7L97.3,78.7z"/>
		</g>
	</g>
	<g>
		<g>
			<path class="st1" d="M103,69.3c-1.6-1.8-3.3-3.5-4.7-5.5c-1.2-1.7-2.1-3.7-3.6-5.3c-0.4-0.5-1.4-0.1-1.3,0.6
				c0.5,4.4,4.4,9.3,7.8,12.1C102.5,72.2,104.2,70.6,103,69.3L103,69.3z"/>
		</g>
	</g>
	<g>
		<g>
			<path class="st1" d="M85.4,86.5c4.5,2.6,14.7,2.9,17.2-2.8c0.2-0.6-0.2-1.2-0.8-1.1c-2.4,0.7-4.4,2.3-6.9,2.9
				c-3,0.6-5.8,0.1-8.6-0.9C85,84.1,84.3,85.9,85.4,86.5L85.4,86.5z"/>
		</g>
	</g>
	<g>
		<g>
			<path class="st1" d="M63.5,42c3,12.1-4,23-2.9,35.1c0.4,4.9,2.5,9.4,4.7,13.7c2.8,5.7,4.9,10.8,5.2,17.2c0.1,1.4,2,1.7,2.5,0.3
				C76.7,97,64.5,86.6,64,75.5c-0.5-11.4,7.4-23.4,1.8-34.5C65.1,39.7,63.2,40.6,63.5,42L63.5,42z"/>
		</g>
	</g>
	<g>
		<g>
			<path class="st1" d="M59.8,46.7c-0.2,0-0.5,0.1-0.7,0.1c-0.4,0.1-0.7,0.5-0.9,0.9c-1.5,4.3-0.7,9.7-1.7,14.2
				c-1,4.7-3.6,9-4.2,13.7c-0.1,0.9,1.1,1.2,1.7,0.7c3.9-3.6,5.2-10.3,6.1-15.2c0.8-4.5,1.2-9.5,0.5-14C60.4,46.8,60,46.7,59.8,46.7
				L59.8,46.7z"/>
		</g>
	</g>
	<g>
		<g>
			<path class="st1" d="M57.3,76c-2.6-1.4-6-2.7-8.5-0.4c-2.5,2.3-1.4,6.3-0.2,8.9c2.7,6,10.1,11.4,16.3,6.3
				c1.1-0.9-0.1-2.8-1.4-2.3c-4,1.6-7.4,1.4-10.3-2.2c-1.1-1.4-2-3-2.5-4.8c-0.3-1.2-0.3-3.2,1-4c1-0.6,3.2,0.7,4,1.1
				C57.5,79.6,59.1,77,57.3,76L57.3,76z"/>
		</g>
	</g>
	<g>
		<g>
			<path class="st1" d="M44.5,32.7C34.9,43.6,33.2,59,35.1,72.9c1.1,8.2,3.6,16.1,5.8,24c1.2,4.4,2.3,8.9,2.2,13.5
				c-0.1,4.4-1.7,8-3.3,12c-0.6,1.4,1.5,2.3,2.4,1.4c10.4-10.5,1.3-29.6-1.5-41.3c-4-16.7-4.1-33.6,6.3-47.9
				C47.9,33.2,45.6,31.4,44.5,32.7L44.5,32.7z"/>
		</g>
	</g>
	<g>
		<g>
			<path class="st1" d="M41.6,125.6c7,2.2,14.1,1.5,21.2,0.2c4.8-0.9,11.5-1.7,13.1-7.1c0.4-1.3-1.3-2.3-2.2-1.3
				c-3.6,3.9-8.5,4.6-13.5,5.5c-6,1-11.9,1.3-17.7-0.5C40.4,121.7,39.5,125,41.6,125.6L41.6,125.6z"/>
		</g>
	</g>
	<g>
		<g>
			<path class="st1" d="M35,126.7c3.4-0.4,8.4-2.7,9.2-6.4c0.2-0.7-0.6-1.4-1.2-0.9c-1.3,0.9-2.3,2.2-3.6,3.2c-1.4,1-3,1.6-4.7,2.1
				C33.7,125,33.8,126.8,35,126.7L35,126.7z"/>
		</g>
	</g>
	<g>
		<g>
			<path class="st1" d="M74.6,97.9c1.9,2.8,4,5.4,6,8.1c1.6,2.1,3.2,5.2,5.6,6.3c0.8,0.4,1.6-0.2,1.5-1.1c-0.5-2.6-3.1-5-4.7-7
				c-2.1-2.6-4.2-5.3-6.3-7.9C75.7,95.3,73.8,96.7,74.6,97.9L74.6,97.9z"/>
		</g>
	</g>
	<g>
		<g>
			<path class="st1" d="M97.2,104c0.4,2.8,1.8,6.2,4.3,7.8c1.2,0.8,2.7-0.8,2-2c-0.6-1-1.5-1.8-2-2.9c-0.6-1.1-0.9-2.2-1.3-3.3
				C99.6,102.1,97,102.3,97.2,104L97.2,104z"/>
		</g>
	</g>
	<g>
		<g>
			<path class="st1" d="M102.4,109.4c1.8,1,3.2,1.6,4.1,3.6c1,2.1,0.9,4.4,1.1,6.7c0.2,3,0.3,5.9,2.8,7.7c0.5,0.4,1.2-0.1,1.2-0.7
				c0-2.6-0.8-5.1-1-7.7c-0.1-1.9-0.2-3.8-0.7-5.6c-1-3.4-3-5-6.1-6.4C102.2,106.3,100.9,108.6,102.4,109.4L102.4,109.4z"/>
		</g>
	</g>
	<g>
		<g>
			<path class="st1" d="M109.5,127.5c2.3,2.2,4.9,3.9,7.9,5c2.4,0.8,6.2,1.9,8.4,0.3c0.5-0.3,0.5-1,0-1.3c-1.9-1.2-4.5-0.9-6.6-1.6
				c-2.9-0.9-5.4-2.3-7.6-4.3C110.1,124.3,108.1,126.2,109.5,127.5L109.5,127.5z"/>
		</g>
	</g>
	<g>
		<g>
			<path class="st1" d="M106.7,103.2c2.2,1.5,5.1,2,7.6,2.7c2.3,0.7,4.7,1.8,7,1.3c0.6-0.1,0.8-1,0.4-1.4c-1.7-1.7-4.4-2.1-6.6-2.8
				c-2.5-0.7-5.2-1.9-7.8-1.9C106.1,101.2,105.8,102.6,106.7,103.2L106.7,103.2z"/>
		</g>
	</g>
	<g>
		<g>
			<path class="st1" d="M119,106.1c-1.5,4.1,0.4,9.6,1.7,13.6c1.4,4.4,3.2,8.9,6.1,12.4c0.6,0.7,1.8,0,1.5-0.9
				c-1.5-4.5-3.7-8.6-5-13.1c-1.1-4-1-8.6-3-12.1C119.9,105.4,119.2,105.6,119,106.1L119,106.1z"/>
		</g>
	</g>
	<g>
		<g>
			<path class="st1" d="M78.1,103.6c-1.5,3.3-2,7-2.5,10.6c-0.5,3.5-1.2,7.3-0.3,10.7c0.3,1,1.6,0.9,1.9,0c1.2-3.4,1.1-7.3,1.7-10.8
				c0.5-3.3,1.4-6.5,1.7-9.8C80.8,103,78.6,102.4,78.1,103.6L78.1,103.6z"/>
		</g>
	</g>
	<g>
		<g>
			<path class="st1" d="M75,126.7c4.9,2.8,9.6,6,13.9,9.6c2.5,2.1,5.1,5.6,8.8,5.2c1.1-0.1,1.4-1.3,0.5-1.9
				c-7.1-5.4-13.7-11.3-21.6-15.6C74.9,123.1,73.3,125.7,75,126.7L75,126.7z"/>
		</g>
	</g>
	<g>
		<g>
			<path class="st1" d="M97.4,140.6c1.2-6,2-14.1-0.8-19.8c-0.4-0.8-1.4-0.3-1.5,0.4c-0.3,3.1,0.4,6.3,0.5,9.5
				c0.1,3.2-0.2,6.3-0.4,9.5C95,141.6,97.2,141.9,97.4,140.6L97.4,140.6z"/>
		</g>
	</g>
	<g>
		<g>
			<path class="st1" d="M81,116.6c2.6,2.1,5.4,3.7,8.5,5c2.6,1,5.9,2.4,8.6,1.2c0.4-0.2,0.5-0.9,0.2-1.2c-1.9-1.6-4.6-1.8-6.9-2.6
				c-3.1-1.1-5.9-2.7-8.6-4.5C81.4,113.6,79.8,115.7,81,116.6L81,116.6z"/>
		</g>
	</g>
	<g>
		<g>
			<path class="st1" d="M83.4,114.4c-0.5-1.2-0.9-2.6-1.2-3.9c-0.2-1.2-0.1-2.6-0.6-3.8c-0.4-1-1.7-1-2.1,0c-1,2.7,0.5,6.5,1.7,8.9
				C82,117.1,84,115.8,83.4,114.4L83.4,114.4z"/>
		</g>
	</g>
	<g>
		<g>
			<path class="st1" d="M96.8,133.2c3.6,4.1,7.2,8.2,10.4,12.7c2.7,3.8,4.7,8,7.7,11.5c0.9,1.1,2.8-0.1,2.3-1.4
				c-3.1-9.2-11.4-18.3-18.3-24.9C97.5,129.8,95.6,131.8,96.8,133.2L96.8,133.2z"/>
		</g>
	</g>
	<g>
		<g>
			<path class="st1" d="M109.4,123.6c-1.1,3.6,1.5,8.1,2.4,11.7c1.4,5.2,2.5,10.5,3.3,15.9c1.7,10.9,2.4,22,2.8,33
				c0.4,10.7,0.6,21.4,0.9,32.2c0.3,11.1-0.1,22.5,1.5,33.5c0.2,1.1,1.7,0.7,1.7-0.2c1.2-11.6,0.1-23.6-0.1-35.2
				c-0.2-11.3-0.4-22.6-0.9-33.8c-0.4-10.1-1.2-20.3-2.8-30.3c-0.9-5.3-2-10.6-3.4-15.9c-1-3.6-1.6-8.9-4.9-11.1
				C109.7,123.3,109.4,123.4,109.4,123.6L109.4,123.6z"/>
		</g>
	</g>
	<g>
		<g>
			<path class="st1" d="M74.1,121.1c-3.4,1.4-6,5.9-8.6,8.5c-1.6,1.6-3.2,3.2-4.8,4.7c-1.6,1.5-3.5,2.7-4.3,4.7
				c-0.3,0.7,0.2,1.5,1,1.3c3.8-0.9,7.2-5.5,9.8-8.2c2.6-2.6,7.2-6.2,7.9-10C75.2,121.6,74.7,120.8,74.1,121.1L74.1,121.1z"/>
		</g>
	</g>
	<g>
		<g>
			<path class="st1" d="M44,159C44.1,159,44.1,159,44,159C43.9,159,43.9,159,44,159L44,159z"/>
		</g>
	</g>
	<g>
		<g>
			<path class="st1" d="M43.7,163.2c2.5-4.1,5-8.3,7.5-12.4c2.2-3.7,5-7.5,6.5-11.5c0.4-1-1.1-1.8-1.8-1.1c-3,3.1-4.9,7.5-7.1,11.2
				c-2.4,4.2-4.9,8.3-7.4,12.5C40.4,163.3,42.8,164.7,43.7,163.2L43.7,163.2z"/>
		</g>
	</g>
	<g>
		<g>
			<path class="st1" d="M38.4,160.6c2.8,2.9,25.1,19.4,26.9,11.1c0.1-0.6-0.5-1.3-1.1-0.9c-2.6,1.8-10.4-3.1-12.9-4.4
				c-4-2.1-7.7-4.6-10.9-7.8C39.1,157.5,37.2,159.3,38.4,160.6L38.4,160.6z"/>
		</g>
	</g>
	<g>
		<g>
			<path class="st1" d="M63.7,172c-1.2,0.1-1.8,1.2-2.4,2.1c-0.9,1.3-1.7,2.6-2.6,3.9c-0.9,1.4,1.3,2.6,2.2,1.3
				c0.8-1.2,1.6-2.5,2.4-3.7c0.6-0.9,1.4-2,1-3.1C64.1,172.2,63.9,172,63.7,172L63.7,172z"/>
		</g>
	</g>
	<g>
		<g>
			<path class="st1" d="M33.3,165.7c5.8,6.7,17.5,13.7,26.6,13.1c0.7,0,1.1-1.1,0.4-1.4c-4.4-2.1-9.2-2.9-13.6-5.1
				c-4.4-2.2-8.2-5.3-12.1-8.2C33.6,163.4,32.6,164.8,33.3,165.7L33.3,165.7z"/>
		</g>
	</g>
	<g>
		<g>
			<path class="st1" d="M35.5,166.2c0.9-1.6,1.8-3.3,2.7-4.9c0.7-1.3,1.7-2.8,1.7-4.3c0-0.4-0.5-0.8-0.9-0.5
				c-1.3,0.8-1.9,2.4-2.6,3.8c-0.9,1.6-1.7,3.3-2.6,5C33.3,166.3,34.9,167.3,35.5,166.2L35.5,166.2z"/>
		</g>
	</g>
	<g>
		<g>
			<path class="st1" d="M64.9,143c-0.2-0.6-0.4-1-0.7-1.6c-0.4-0.9-1.7-0.2-1.5,0.6c0.5,2.7,3,5.3,4.5,7.6c1.6,2.5,2.9,5.3,4.9,7.4
				c0.7,0.7,2,0,1.7-1c-0.8-3-2.9-5.7-4.5-8.3c-1.5-2.3-2.9-5.4-5.3-6.7c-0.3,0.5-0.6,0.9-0.8,1.4c0.5,0.3,1,0.6,1.5,0.8
				C64.7,143.4,65,143.2,64.9,143L64.9,143z"/>
		</g>
	</g>
	<g>
		<g>
			<path class="st1" d="M62.5,171.9c0.1,0,0.2,0,0.3,0c0.4,0,0.9-0.3,1.1-0.6c0.7-1.5,1.6-2.9,2.8-4.2c0.9-0.9,2.5-1.7,2.4-3.1
				c0-0.2-0.1-0.5-0.3-0.6c-1.5-0.7-3,0.9-3.9,1.9c-1.3,1.4-2.4,3-3.1,4.7c-0.3,0.7-0.2,1.3,0.4,1.7
				C62.3,171.9,62.4,171.9,62.5,171.9L62.5,171.9z"/>
		</g>
	</g>
	<g>
		<g>
			<path class="st1" d="M67.6,166.6c4.5,14.9,6.6,29.9,5,45.5c-0.8,7.7-2.5,15.3-4.9,22.7c-2.6,7.7-6.7,14.5-9.9,21.9
				c-0.6,1.3,1.1,3,2.1,1.7c4.9-5.9,7.9-13.9,10.4-21.1c2.5-7.3,4.3-14.9,5.2-22.7c2-16.2,0.7-33.4-5.2-48.7
				C69.7,164.2,67.1,164.8,67.6,166.6L67.6,166.6z"/>
		</g>
	</g>
	<g>
		<g>
			<path class="st1" d="M59.3,259.2c10.8,4.1,22.3,5.7,33.8,4.5c9.9-1,22.1-3.7,30.1-10.1c1.2-0.9-0.1-3-1.5-2.5
				c-4.8,1.8-9.1,4.4-14.1,6c-5.2,1.7-10.7,2.8-16.1,3.2c-10.7,0.9-21.3-0.7-31.3-4.4C58.2,255.1,57.3,258.4,59.3,259.2L59.3,259.2z
				"/>
		</g>
	</g>
	<g>
		<g>
			<path class="st1" d="M119.3,250.3c0.8,4.4,6.4,8,10,10.2c4.5,2.8,9.6,4.7,14.8,5.4c5.8,0.8,11.9,0.3,17.5-1.5
				c4.5-1.5,10.3-3.8,12.9-8c0.5-0.8-0.3-2.1-1.3-1.7c-4.4,1.6-7.9,4.8-12.5,6.3c-4.8,1.6-10,2.2-15.1,1.6
				c-4.9-0.6-9.7-2.2-13.9-4.7c-2.2-1.3-4.3-2.9-6.2-4.6c-1.6-1.5-2.7-3.2-4.7-4.1C119.9,248.8,119.1,249.4,119.3,250.3L119.3,250.3
				z"/>
		</g>
	</g>
	<g>
		<g>
			<path class="st1" d="M145.8,133.7c7.3,20.5,9.4,41.7,11.7,63.1c1.1,9.9,2.3,19.9,4.3,29.7c2,9.6,4.1,21.4,9.3,29.9
				c0.9,1.4,2.8,0.4,2.6-1.1c-1-5.3-3.4-10.5-4.9-15.6c-1.4-5-2.7-10-3.7-15c-2.3-11-3.5-22.1-4.7-33.2c-2.1-19.9-4-40.3-12.1-58.8
				C147.7,131.2,145.3,132.2,145.8,133.7L145.8,133.7z"/>
		</g>
	</g>
	<g>
		<g>
			<path class="st1" d="M141.6,128c-0.1,3,1.7,4.8,3.3,7.3c2.1,3.3,4.3,6.5,6.4,9.8c1.8,2.8,4.5,10.1,8.6,9.5
				c0.4-0.1,0.9-0.5,0.9-0.9c0.2-0.9,0.1-1.3-0.6-2c-0.4-0.4-1.1-0.4-1.5,0c-0.1,0.1-0.1,0.1-0.2,0.2c-0.5,0.4-0.3,1.4,0.4,1.5
				c-0.1-0.4-0.2-0.7-0.3-1.1c0.5-0.1,1.1-0.1,1.6-0.2c-2.3-1.5-4-5.6-5.6-7.9c-1.6-2.4-3.3-4.9-4.9-7.3c-2.2-3.2-4-7.8-7.8-9.2
				C141.7,127.6,141.6,127.8,141.6,128L141.6,128z"/>
		</g>
	</g>
	<g>
		<g>
			<path class="st1" d="M158.8,154.9c5-3.4,9.2-7.6,12.5-12.6c2.4-3.7,6.9-10.9,5.1-15.4c-0.2-0.4-0.7-0.7-1.1-0.3
				c-1.4,1.4-1.5,2.6-2.1,4.4c-0.9,3-2.2,5.8-3.8,8.5c-3,5.2-7.2,9.5-12.1,13C155.9,153.5,157.2,156,158.8,154.9L158.8,154.9z"/>
		</g>
	</g>
	<g>
		<g>
			<path class="st1" d="M176.1,127.7c-1.4-1.3-3.1-2.4-4.4-3.9c-0.8-0.8-2.4-3.2-3.7-1.8c-1.2,1.4,1,3.2,1.8,4
				c1.4,1.4,3,2.8,4.8,3.6C175.7,130.1,177.2,128.7,176.1,127.7L176.1,127.7z"/>
		</g>
	</g>
	<g>
		<g>
			<path class="st1" d="M167.7,122.7c-1.9,4.9-3.4,9.7-6,14.3c-2.1,3.7-5.3,6.8-6.9,10.7c-0.3,0.8,0.7,1.3,1.3,1
				c4.1-2.3,6.9-7.7,9-11.7c2.3-4.4,4.3-9.1,5-14.1C170.3,121.6,168.2,121.6,167.7,122.7L167.7,122.7z"/>
		</g>
	</g>
	<g>
		<g>
			<path class="st1" d="M137.7,102.6c4.7,4.2,9.4,8.4,14.2,12.6c4.3,3.8,8.4,8.2,13.3,11.2c1.3,0.8,2.5-1,1.6-2.1
				c-3.8-4.5-8.9-8.2-13.3-12c-4.5-3.9-9.1-7.8-13.6-11.7C138.3,99.4,136.3,101.4,137.7,102.6L137.7,102.6z"/>
		</g>
	</g>
	<g>
		<g>
			<path class="st1" d="M112.9,103.9c7.1,2.2,17.5,4.2,24.3,0.5c1.1-0.6,0.5-2.2-0.6-2.2c-3.6-0.3-7.2,0.7-10.9,0.7
				c-4.1-0.1-8.1-0.7-12-1.7C111.9,100.6,111.1,103.3,112.9,103.9L112.9,103.9z"/>
		</g>
	</g>
	<g>
		<g>
			<path class="st1" d="M136.6,103c0.5,1.3,0.1,1.8,0.9,3.1c0.9,1.4,1.8,2.9,2.5,4.4c1.3,2.7,1.6,6.2,3.4,8.5
				c0.4,0.6,1.3,0.2,1.5-0.4c0.9-2.9-0.9-6.5-2.1-9.2c-0.8-1.7-1.7-3.3-2.8-4.8c-1.1-1.5-1.5-0.9-2.9-1.9
				C136.8,102.6,136.5,102.8,136.6,103L136.6,103z"/>
		</g>
	</g>
	<g>
		<g>
			<path class="st1" d="M171.4,139.7c1.6,2.6,3.3,5.2,5.1,7.6c0.6,0.7,2.2,2.7,3.4,1.9c0.3-0.2,0.4-0.5,0.4-0.9c0,0,0,0,0,0
				c-0.1-0.5-0.7-0.7-1.1-0.5c0,0,0,0,0,0c0.3,0,0.7,0.1,1,0.1c0.4,0.3,0.1,0.2,0-0.2c-0.1-0.3-0.2-0.5-0.3-0.8
				c-0.4-0.8-1-1.6-1.5-2.3c-1.5-2.1-2.9-4.3-4.3-6.4C172.9,136.7,170.4,138.2,171.4,139.7L171.4,139.7z"/>
		</g>
	</g>
	<g>
		<g>
			<path class="st1" d="M159.3,153c3.4,3.8,6.9,7.4,10.5,11c3.1,3.2,6.2,7.3,10.1,9.5c0.9,0.5,1.8-0.5,1.4-1.4
				c-2.1-4-6.1-7.1-9.3-10.3c-3.5-3.6-7.1-7.3-10.7-10.7C160,149.9,158.2,151.7,159.3,153L159.3,153z"/>
		</g>
	</g>
	<g>
		<g>
			<path class="st1" d="M180.9,173.9c4.6-2,7.6-9.2,10.4-13.2c3.9-5.6,7.7-11.1,11.6-16.7c7.7-11,16.5-21.7,23-33.4
				c0.4-0.8-0.6-1.7-1.3-1c-9,9.6-16.3,21.3-23.8,32c-3.9,5.5-7.8,11.1-11.6,16.7c-1.8,2.7-3.6,5.3-5.5,8c-1.7,2.4-3.4,4.2-3.5,7.2
				C180.1,173.8,180.6,174,180.9,173.9L180.9,173.9z"/>
		</g>
	</g>
	<g>
		<g>
			<path class="st1" d="M180.6,149.5c6.1-7.4,11.5-15.4,17.2-23.1c6-8.2,13.4-16.4,17.8-25.5c0.4-0.8-0.6-1.6-1.3-1
				c-7,6.6-12.3,15.6-18,23.4c-6,8.2-12.2,16.2-17.8,24.6C177.8,149.2,179.7,150.7,180.6,149.5L180.6,149.5z"/>
		</g>
	</g>
	<g>
		<g>
			<path class="st1" d="M214.4,104c1.2-5.3,2-10.9,2.3-16.3c0.1-1.4-2.1-1.7-2.4-0.3c-1.2,5.2-1.9,10.9-2.2,16.3
				C212.1,104.9,214.1,105.2,214.4,104L214.4,104z"/>
		</g>
	</g>
	<g>
		<g>
			<path class="st1" d="M214.7,88.6c8.6,0.2,21.1-3.8,24.9-12.4c0.3-0.7-0.4-1.8-1.2-1.2c-3.4,2.3-6.1,5.4-9.8,7.3
				c-4.4,2.3-9,3.4-14,3.6C213,86,212.9,88.6,214.7,88.6L214.7,88.6z"/>
		</g>
	</g>
	<g>
		<g>
			<path class="st1" d="M236.9,77.7c-0.2,5.1-3.2,8.2-6.7,11.6c-0.6,0.6,0,1.6,0.8,1.4c5.4-1.4,8.3-7.7,8.5-12.9
				C239.5,76.1,237,76.1,236.9,77.7L236.9,77.7z"/>
		</g>
	</g>
	<g>
		<g>
			<path class="st1" d="M237.1,76.6c1.5-4.5,3.8-10.1,3.9-14.9c0-0.9-1.2-1.2-1.6-0.4c-2.5,4.1-3.5,10.1-4.6,14.7
				C234.4,77.5,236.6,78.1,237.1,76.6L237.1,76.6z"/>
		</g>
	</g>
	<g>
		<g>
			<path class="st1" d="M239.8,64.2c1.2-1.5,2.1-3.1,3.1-4.7c1-1.6,2-3.1,2.4-4.9c0.1-0.5-0.4-0.8-0.8-0.5c-1.4,1.1-2.3,2.6-3.2,4.1
				c-1,1.6-2.1,3.2-2.9,4.9C237.9,63.9,239.1,65,239.8,64.2L239.8,64.2z"/>
		</g>
	</g>
	<g>
		<g>
			<path class="st1" d="M242.7,57.1c0.6,2.5,1.4,5.9,3.4,7.7c0.4,0.3,1,0.1,1-0.4c0-2.6-1.6-5.4-2.3-7.9
				C244.4,55.2,242.4,55.7,242.7,57.1L242.7,57.1z"/>
		</g>
	</g>
	<g>
		<g>
			<path class="st1" d="M244.4,62.4c-2.7,5.7-4.1,12.1-6.1,18.1c-2.2,6.3-5.6,12.9-6.6,19.5c-0.1,0.8,0.9,1.3,1.4,0.6
				c3.7-5.3,5.6-12.4,7.7-18.4c2.1-6.2,4.9-12.7,5.6-19.2C246.5,61.9,244.8,61.5,244.4,62.4L244.4,62.4z"/>
		</g>
	</g>
	<g>
		<g>
			<path class="st1" d="M242,85.9c0.2,0,0.2-0.4,0-0.4C241.8,85.5,241.8,85.9,242,85.9L242,85.9z"/>
		</g>
	</g>
	<g>
		<g>
			<path class="st1" d="M242,85.9c0.4,0,0.4-0.6,0-0.6C241.6,85.4,241.6,85.9,242,85.9L242,85.9z"/>
		</g>
	</g>
	<g>
		<g>
			<path class="st1" d="M238.7,85C238.7,85,238.7,85,238.7,85C238.6,85,238.6,85,238.7,85L238.7,85z"/>
		</g>
	</g>
	<g>
		<g>
			<path class="st1" d="M237.8,85.2c2.6,0.1,5.2-2.4,7.3-3.8c2.2-1.4,5.1-2.8,6.6-5.1c0.3-0.5-0.2-0.9-0.7-0.9
				c-2.9,0.4-5.6,2.8-8,4.4c-2,1.3-4.8,2.4-5.7,4.7C237.1,84.9,237.5,85.2,237.8,85.2L237.8,85.2z"/>
		</g>
	</g>
	<g>
		<g>
			<path class="st1" d="M250.1,76.7c-0.4,1.8-0.4,3.6-0.7,5.4c-0.3,1.6-0.9,2.9-0.6,4.5c0.1,0.6,0.8,0.7,1.2,0.3
				c1.4-1.2,1.6-3.1,1.9-4.8c0.3-1.8,0.6-3.6,0.2-5.4C252,75.7,250.4,75.7,250.1,76.7L250.1,76.7z"/>
		</g>
	</g>
	<g>
		<g>
			<path class="st1" d="M248.7,83.6c-3.3,4.4-6.1,9.1-9.6,13.3c-2.9,3.5-6.7,6.6-9.1,10.4c-0.5,0.8,0.4,1.6,1.2,1.2
				c4.4-2.4,7.8-7.1,10.8-10.9c3.2-4,6.3-8.3,8.5-13C251.1,83.4,249.5,82.5,248.7,83.6L248.7,83.6z"/>
		</g>
	</g>
	<g>
		<g>
			<path class="st1" d="M231.6,105c0.2-2.2,0.6-4.5,1.2-6.6c0.5-2,1.4-3.9,1.6-5.9c0.1-0.5-0.5-1-0.9-0.5c-3,3.3-3.8,8.8-4.1,13.1
				C229.4,106.4,231.4,106.3,231.6,105L231.6,105z"/>
		</g>
	</g>
	<g>
		<g>
			<path class="st1" d="M243.7,93.6c0.9,1.6,1.7,3.4,2,5.2c0.4,1.7,0.1,3.5,0.7,5.1c0.3,0.7,1.3,1,1.7,0.2c1.8-3.4-0.4-8.8-2.3-11.8
				C245,90.9,242.9,92.2,243.7,93.6L243.7,93.6z"/>
		</g>
	</g>
	<g>
		<g>
			<path class="st1" d="M245.8,101.6c-3,0.9-5.4,3.8-7.8,5.7c-2.6,2.1-6,4-8,6.7c-0.4,0.6,0.3,1.3,0.9,1.1c3.1-0.8,5.7-3.2,8.2-5.1
				c2.5-1.9,6.3-4.2,7.6-7.2C247,102.2,246.6,101.4,245.8,101.6L245.8,101.6z"/>
		</g>
	</g>
	<g>
		<g>
			<path class="st1" d="M230.1,105.4c-2.3,1.7-3.4,4.8-2.6,7.7c0.3,1.1,1.2,2,2.3,2c1,0,1.8-0.7,1.5-1.7c-0.1-0.5-0.8-0.8-1.2-0.5
				c0.3,0.1,0.4,0,0.1-0.1c-0.1-0.2-0.2-0.4-0.2-0.6c-0.1-0.6-0.1-1.2,0-1.8c0.2-1.1,0.8-2.3,1.5-3.2
				C232.2,106.3,231.3,104.5,230.1,105.4L230.1,105.4z"/>
		</g>
	</g>
	<g>
		<g>
			<path class="st1" d="M244.7,106.8c-2.4,0.2-3.7,2.5-5.4,4.1c-1.8,1.7-3.8,3.2-5.3,5.2c-0.4,0.6,0.3,1.4,0.9,1.2
				c2.3-0.8,4.2-2.6,6-4.2c1-0.9,2-1.9,2.9-3c0.9-1.1,1.3-1.5,1.1-3C244.9,106.9,244.8,106.8,244.7,106.8L244.7,106.8z"/>
		</g>
	</g>
	<g>
		<g>
			<path class="st1" d="M229.3,116.2c2.3,1.2,5.2,1,7.5,0c0.5-0.2,0.7-0.9,0.6-1.4c0-0.1-0.1-0.2-0.1-0.3c-0.2-0.5-0.9-0.7-1.4-0.6
				c-2.1,0.6-3.9,0.4-6,0.2C228.8,114,228.4,115.7,229.3,116.2L229.3,116.2z"/>
		</g>
	</g>
	<g>
		<g>
			<path class="st1" d="M223.8,113.7c1.4,1.3,5.1,2.9,6.7,1.1c0.3-0.4,0.2-0.8-0.1-1.1c-0.8-0.6-1.8-0.4-2.8-0.6c-1-0.2-2-0.6-2.9-1
				C223.8,111.8,223.1,113.1,223.8,113.7L223.8,113.7z"/>
		</g>
	</g>
	<g>
		<g>
			<path class="st1" d="M242.3,58.3c0-0.2,0-0.4-0.1-0.6c-0.1-0.1-0.1-0.1-0.2-0.2c-0.2-0.2-0.2-0.3-0.3-0.6
				c-0.2-0.4-0.7-0.5-1.1-0.4c-1,0.3-1.5,1.3-1.1,2.3c0.4,0.9,1.5,1.7,2.5,1c-0.1,0-0.3,0.1-0.4,0.1c0.8,0,1.8-0.9,1.3-1.7
				c-0.1-0.2-0.5-0.3-0.6,0c0,0.1-0.1,0.3-0.2,0.3c0,0,0.2,0.1,0,0c-0.1-0.1-0.2-0.1-0.4-0.2c-0.1,0-0.2,0-0.3-0.1
				c0,0-0.1-0.1-0.1-0.1c-0.2-0.1,0.1-0.1,0,0c0,0-0.1,0.1-0.1,0.1c0.1,0.1,0.7-0.5,0.7-0.5c0.2,0,0.3,0.4,0.3,0.6
				C242.1,58.3,242.2,58.4,242.3,58.3L242.3,58.3z"/>
		</g>
	</g>
	<g>
		<g>
			<path class="st1" d="M242.5,58.6c0.2,0.2,0.2,0.7-0.1,0.8c0.2,0.3,0.4,0.7,0.6,1c0.9-0.9,1.9-1.4,2.2-2.7
				c0.3-1.1,0.5-2.4,0.4-3.5c0-0.3-0.5-0.3-0.6-0.1c-0.5,0.8-0.7,1.9-0.9,2.9c-0.1,0.6,0,1-0.6,1.5c-0.4,0.4-0.9,0.7-1.3,1
				c-0.5,0.4-0.2,1.4,0.5,1.1c1.3-0.4,1.4-2.2,0.1-2.7C242.4,57.8,242.2,58.4,242.5,58.6L242.5,58.6z"/>
		</g>
	</g>
	<g>
		<g>
			<path class="st1" d="M232.9,89c-2.7,0-4.7,4.6-5.8,6.7c-1.8,3.3-3.1,6.9-3.5,10.7c-0.1,1,1.3,1,1.6,0.2c1.4-3.6,2.7-7.2,4.6-10.6
				c1.1-2,3.8-4.4,3.3-6.7C233.1,89,233,89,232.9,89L232.9,89z"/>
		</g>
	</g>
	<g>
		<g>
			<path class="st1" d="M223.9,105.2c0.6,2,2.3,3.3,4.3,3.8c1.7,0.4,4.3,0.3,5.3-1.4c0.2-0.4-0.1-1.1-0.6-1.1
				c-1.3,0.2-2.5,0.7-3.9,0.4c-1.5-0.3-2.6-1.2-3.3-2.5C225.1,103.6,223.6,104.1,223.9,105.2L223.9,105.2z"/>
		</g>
	</g>
	<g>
		<g>
			<path class="st1" d="M226.5,100.2c1.2,2.4,4.7,4.3,7.3,2.9c0.5-0.3,0.5-1.2-0.2-1.4c-1-0.2-2.1-0.2-3.1-0.7c-1-0.4-1.8-1.2-2.5-2
				C227.2,98.2,226,99.3,226.5,100.2L226.5,100.2z"/>
		</g>
	</g>
	<g>
		<g>
			<path class="st1" d="M226.6,91.3c1.6,0.5,4-0.1,4.7-1.7c0.2-0.4-0.1-1-0.6-0.8c-0.6,0.3-1.2,0.6-1.8,0.9
				c-0.7,0.3-1.4,0.3-2.1,0.4C226,90.1,225.9,91.1,226.6,91.3L226.6,91.3z"/>
		</g>
	</g>
	<g>
		<g>
			<path class="st1" d="M47,33.5c0.2,0,0.2-0.2,0-0.2C46.8,33.2,46.8,33.5,47,33.5L47,33.5z"/>
		</g>
	</g>
	<g>
		<g>
			<path class="st1" d="M48.5,33.7c3.6-13.6,19-19.7,31.9-19.6c13.7,0.1,26.5,6.4,36.2,15.9c9.9,9.7,15.4,21.8,20.6,34.5
				c3.6,8.9,8.4,21.8,20.2,20.9c2.2-0.2,2.2-3.4,0-3.4c-10,0-13.5-10.7-16.7-18.4c-2.6-6.5-5.2-13-8.7-19.1
				c-6.1-10.7-14.7-20.3-25.4-26.4C87.8,7.2,52.3,7.1,45.5,32.9C44.9,34.9,48,35.7,48.5,33.7L48.5,33.7z"/>
		</g>
	</g>
	<g>
		<g>
			<path class="st1" d="M143.2,88.5c0.2,1.2,1.1,1.6,2,2.2c1.1,0.7,2.2,1.5,3.4,2.1c1.5,0.7,4.1,1.2,4.7-0.9
				c0.2-0.6-0.2-1.1-0.7-1.3c-0.7-0.3-1.4-0.2-2.1-0.4c-0.8-0.3-1.6-0.8-2.4-1.3c-1.3-0.7-2.9-2-4.4-1.5
				C143.4,87.7,143.2,88.1,143.2,88.5L143.2,88.5z"/>
		</g>
	</g>
	<g>
		<g>
			<path class="st1" d="M144.3,89.9c-1.6,1.6-2.5,3.8-3.9,5.6c-1.5,2-3.2,3.4-5.3,4.8c-1.4,1-0.6,3.8,1.3,3c2.5-1,4.5-2.9,6.2-5
				c1.6-2,3.5-4.4,4.3-6.9C147.4,89.9,145.4,88.8,144.3,89.9L144.3,89.9z"/>
		</g>
	</g>
	<g>
		<g>
			<path class="st1" d="M53.3,176.8c-1.1,1.1-2.1,2.4-3.1,3.6c-1,1.2-2.1,2.3-2.9,3.6c-1,1.7,1.8,3.3,2.6,1.5c0.3-0.5,0.5-1,0.4-1.6
				c0-0.5-0.4-0.8-0.8-0.8c-0.6-0.1-1.1,0.1-1.7,0.4c0.6,0.8,1.2,1.6,1.8,2.4c1.2-1,2.1-2.4,3.1-3.6c1-1.2,2-2.4,2.9-3.6
				C56.7,177.3,54.5,175.7,53.3,176.8L53.3,176.8z"/>
		</g>
	</g>
	<g>
		<g>
			<path class="st1" d="M48,185.5c4.1,3.4,8.2,6.7,12.2,10.2c3.6,3.2,6.9,7.1,10.9,9.7c1.1,0.7,2.6-0.7,1.8-1.8
				c-2.8-4.2-7.2-7.5-11-10.8c-3.9-3.4-7.9-6.7-12.1-9.7C48.4,182.2,46.7,184.4,48,185.5L48,185.5z"/>
		</g>
	</g>
	<g>
		<g>
			<path class="st1" d="M58.8,212.2c-4.9,4.1-9,9.4-13.2,14c-3.2,3.5-6.2,7-7.6,11.6c-0.4,1.3,0.8,2.2,2,2
				c6.2-1.2,11.1-4.6,16.1-8.2c5.5-4,11.1-7.9,16.4-12.1c1.3-1.1-0.4-3.3-1.8-2.4c-5.3,3.5-10.3,7.4-15.5,11.1
				c-5,3.6-9.9,7.3-16.1,8.5c0.7,0.7,1.3,1.3,2,2c3-10,14-16.5,19.8-24.9C61.8,212.5,59.9,211.3,58.8,212.2L58.8,212.2z"/>
		</g>
	</g>
	<g>
		<g>
			<path class="st1" d="M38.2,169.7c-2.4,2.4-4.2,5.5-5.8,8.5c-1.4,2.7-3.1,5.8-3,8.8c0,0.8,1,1.3,1.6,0.7c2-2.2,2.8-5.3,4.2-7.9
				c1.5-2.9,3.5-5.6,5-8.5C41,170,39.3,168.6,38.2,169.7L38.2,169.7z"/>
		</g>
	</g>
	<g>
		<g>
			<path class="st1" d="M30.2,187.3c5.2,4.8,10.8,9.2,16.2,13.6c4.1,3.4,9,8.7,14.2,9.8c1.1,0.2,1.7-1,1.1-1.8c-1.7-2-3.9-3.2-6-4.8
				c-3.1-2.3-6.1-4.9-9.2-7.3c-4.9-3.9-9.7-7.9-14.7-11.6C30.6,184.2,29,186.3,30.2,187.3L30.2,187.3z"/>
		</g>
	</g>
	<g>
		<g>
			<path class="st1" d="M73.4,261.8c1,18.2,1.2,36.3,1.4,54.5c0.1,8.9,0.3,17.8,0.9,26.7c0.6,8.5,1,17.7,3.6,25.9
				c0.4,1.2,2.3,1,2.2-0.3c-0.3-8.8-1.9-17.7-2.4-26.5c-0.5-8.9-0.7-17.8-0.8-26.7c-0.2-17.8,0.2-35.8-2-53.6
				C76,260.1,73.3,259.9,73.4,261.8L73.4,261.8z"/>
		</g>
	</g>
	<g>
		<g>
			<path class="st1" d="M76.9,373.1c4.8,3.3,12.9,3.5,18.6,3.1c4.2-0.3,9.4-1.2,11.4-5.4c0.5-1.1-0.6-2.5-1.8-1.8
				c-4.3,2.7-7.8,3.9-13,3.8c-5,0-9.8-1.8-14.7-1.7C76.4,371.2,76.1,372.5,76.9,373.1L76.9,373.1z"/>
		</g>
	</g>
	<g>
		<g>
			<path class="st1" d="M112.9,280.1c-4.4,14.3-6.7,29.5-8.6,44.3c-1,7.7-1.8,15.5-2.4,23.2c-0.3,3.6-0.5,7.1-0.7,10.7
				c-0.2,3.6-0.9,7.6,0.4,11c0.3,0.7,1.4,1.1,1.9,0.2c1.3-2.7,1.1-5.3,1.2-8.3c0.2-3.9,0.4-7.8,0.7-11.7c0.5-7.4,1.2-14.9,2.2-22.3
				c1.9-15.7,5.4-31,8.1-46.5C115.9,279.1,113.5,278.3,112.9,280.1L112.9,280.1z"/>
		</g>
	</g>
	<g>
		<g>
			<path class="st1" d="M114.4,282.1c3.9,7.2,8.1,14.2,12.2,21.2c2,3.4,4,6.8,6,10.1c1.8,3.1,3.4,6.9,6.2,9.2c0.9,0.7,2.1,0,1.9-1.1
				c-0.6-3.4-2.8-6.1-4.5-9c-2.2-3.7-4.3-7.3-6.5-11c-4.2-7-8.3-14.1-12.7-21C115.9,279,113.5,280.4,114.4,282.1L114.4,282.1z"/>
		</g>
	</g>
	<g>
		<g>
			<path class="st1" d="M157.1,263c0.1,10.9,1.9,22,3.5,32.8c0.8,5.4,1.8,10.7,2.8,16c1.1,5.8,1.9,12.2,4.1,17.7
				c0.5,1.4,3,1.4,2.8-0.4c-0.8-10.8-4.2-21.7-6-32.4c-1.8-11.3-2.7-22.8-4.6-34.1C159.5,261.1,157,261.5,157.1,263L157.1,263z"/>
		</g>
	</g>
	<g>
		<g>
			<path class="st1" d="M168.4,329.2c-2.3,3.1-2.4,7.7-3,11.4c-0.5,3.7-1,7.4-1.3,11.1c-0.7,8-1.4,16.7-0.1,24.7
				c0.3,1.6,2.5,1.1,2.7-0.4c0.7-8.1,0.1-16.2,0.8-24.3c0.4-4.4,0.8-8.8,1.5-13.1c0.5-3.2,1.5-6.1,0.6-9.2
				C169.5,328.7,168.7,328.7,168.4,329.2L168.4,329.2z"/>
		</g>
	</g>
	<g>
		<g>
			<path class="st1" d="M137.3,376.2c5.5,3.6,13.1,5,19.7,4.3c4.3-0.5,10.2-2.2,11.1-7.1c0.1-0.6-0.6-1.5-1.3-1
				c-4.1,3.2-7.5,5-12.9,5c-5.6,0-10.4-1.7-15.6-3.6C136.9,373.2,136.1,375.4,137.3,376.2L137.3,376.2z"/>
		</g>
	</g>
	<g>
		<g>
			<path class="st1" d="M137.2,321.5c0,10.6,0.4,21.2,0.7,31.8c0.1,5.1,0.3,10.3,0.4,15.4c0.1,2.1-0.8,5.8,1.5,7.1
				c0.7,0.4,1.5,0.1,2-0.5c0.1-0.1,0.2-0.2,0.2-0.3c0.3-0.4,0.2-1.1-0.2-1.4c-0.1-0.1-0.2-0.2-0.2-0.2c-0.5-0.6-1.4-0.2-1.6,0.4
				c0,0.1-0.1,0.2-0.1,0.3c0.5-0.3,1-0.5,1.4-0.8c1,0.2,0.4-4.1,0.4-5.5c0-1.9-0.1-3.9-0.1-5.8c-0.1-4.5-0.2-9-0.3-13.5
				c-0.2-9-0.4-18-0.8-27C140.4,319.4,137.2,319.4,137.2,321.5L137.2,321.5z"/>
		</g>
	</g>
	<g>
		<g>
			<path class="st1" d="M158.6,381.1c0.2,5.2-0.2,11.1,1,16.1c0.1,0.5,0.6,1.1,1.2,1.2c0.8,0.2,1.3,0.1,1.9-0.5
				c0.4-0.4,0.4-1,0.2-1.5c0-0.1-0.1-0.1-0.1-0.2c-0.3-0.6-1.1-0.6-1.6-0.2c-0.1,0.1-0.1,0.1-0.2,0.2c0.5-0.1,1-0.1,1.5-0.2
				c-0.1-0.1-0.2-0.1-0.3-0.2c0.2,0.5,0.4,1.1,0.7,1.6c0.3-2.1-0.1-4.6-0.2-6.7c-0.2-3.2-0.3-6.5-0.6-9.7
				C161.9,378.9,158.5,378.8,158.6,381.1L158.6,381.1z"/>
		</g>
	</g>
	<g>
		<g>
			<path class="st1" d="M149.4,379.2c-1.4,3.2-0.1,6.9,0.4,10.3c0.6,4,0.5,9.8,3,13c0.4,0.5,1.2,0.5,1.5-0.2c1.3-3.7-0.4-8.2-1-12
				c-0.6-3.7-0.5-8.4-3-11.3C150,378.8,149.5,378.9,149.4,379.2L149.4,379.2z"/>
		</g>
	</g>
	<g>
		<g>
			<path class="st1" d="M160.1,396.5c5.7,7.3,14.8,11.9,23.9,13.1c4.9,0.6,12.1-1,16.5,1.5c2.5,1.4,2.9,3.6,3.7,5.8
				c0.4,0.9,1.5,1.4,2.2,0.6c4-4.1-4.5-9.8-7.6-10.4c-6.2-1.2-12.6,0-18.9-1.6c-7.2-1.8-12.8-5.8-17.9-11
				C160.7,393.2,159,395.1,160.1,396.5L160.1,396.5z"/>
		</g>
	</g>
	<g>
		<g>
			<path class="st1" d="M155.2,421.1c3.5,2,8.1,1.4,12.1,1.4c5.2,0.1,10.4-0.1,15.7-0.4c5.2-0.3,10.4-0.8,15.6-1.5
				c2.9-0.4,6.5-0.2,8.6-2.4c0.4-0.4,0.6-1,0.4-1.6c-0.1-0.2-0.2-0.5-0.3-0.7c-0.3-0.9-1.9-1.4-2.4-0.3c-0.7,1.5-7.3,1.6-8.3,1.8
				c-1.9,0.2-3.9,0.5-5.8,0.6c-4.2,0.4-8.5,0.7-12.7,0.9c-4.2,0.2-8.5,0.3-12.7,0.2c-3.4,0-6.9-0.7-10.1,0.7
				C154.7,420.2,154.8,420.9,155.2,421.1L155.2,421.1z"/>
		</g>
	</g>
	<g>
		<g>
			<path class="st1" d="M152.2,399.5c-1.7,3-0.4,7,0,10.2c0.5,3.8,0.5,8.7,2.4,11.9c0.4,0.7,1.5,0.6,1.8-0.2
				c1.1-3.5-0.3-7.8-0.8-11.4c-0.5-3.4-0.2-7.9-2.4-10.7C153,399.1,152.4,399.2,152.2,399.5L152.2,399.5z"/>
		</g>
	</g>
	<g>
		<g>
			<path class="st1" d="M155,401.1c1.6-0.5,3.2-1.1,4.8-1.7c1.2-0.5,2.3-1,2.8-2.2c0.4-0.9-0.7-1.8-1.6-1.6c-1,0.3-1.8,0.8-2.7,1.2
				c-1.3,0.6-2.7,1.1-4,1.7C152.7,399.1,153.3,401.5,155,401.1L155,401.1z"/>
		</g>
	</g>
	<g>
		<g>
			<path class="st1" d="M190.2,409.3c-1.4,2-2.3,4.2-3,6.6c-0.5,1.8-1.2,4.1,0.3,5.6c0.2,0.2,0.7,0.3,0.9,0.1
				c1.5-1.1,1.4-2.8,1.8-4.5c0.6-2.2,1.5-4.2,2.7-6.2C194,409.1,191.4,407.6,190.2,409.3L190.2,409.3z"/>
		</g>
	</g>
	<g>
		<g>
			<path class="st1" d="M86.6,375.4c0.9,4.6,1.6,9.7,3.5,14c0.5,1.2,2.6,1.3,2.5-0.3c-0.3-4.8-1.8-9.8-3.1-14.5
				C89,372.7,86.2,373.5,86.6,375.4L86.6,375.4z"/>
		</g>
	</g>
	<g>
		<g>
			<path class="st1" d="M98.8,373.5c-0.1,0.1-0.3,0.1-0.4,0.2c-0.5,0.2-0.8,0.8-0.8,1.3c0.1,2.4,0.2,4.9,0.3,7.3c0.1,2-0.1,4,1,5.7
				c0.4,0.6,1.3,0.7,1.7,0c0.9-1.8,0.6-3.7,0.5-5.7c-0.1-2.4-0.3-4.9-0.4-7.3c0-0.7-0.4-1.2-1.1-1.5C99.2,373.5,99,373.4,98.8,373.5
				L98.8,373.5z"/>
		</g>
	</g>
	<g>
		<g>
			<path class="st1" d="M89.1,387.2C89.1,387.2,89.1,387.2,89.1,387.2c-0.4,0.7-0.1,1.4,0.4,1.8c3.7,2.7,9.7,2.6,13.4,0
				c0.5-0.4,0.8-0.9,0.6-1.6c-0.4-2-2.9-0.4-3.9,0c-3.2,1.2-6.1,0.4-9.2-0.8c-0.4-0.2-1,0-1.3,0.3C89.2,387,89.2,387.1,89.1,387.2
				L89.1,387.2z"/>
		</g>
	</g>
	<g>
		<g>
			<path class="st1" d="M86.4,390.3c1.9,6.5,4.2,12.9,5.4,19.6c0.8,4.6-0.5,7.3-3.7,10.4c-2.4,2.3-4.9,4.5-7.3,6.8
				c-1.9,1.8-4.5,4.4-1.8,6.9c3.1,2.9,11.7,1.6,15.5,1.5c6.3-0.2,22.2,0.6,21.2-9.2c-0.3-2.4-1.6-4.6-2.5-6.8
				c-1.7-3.8-3.1-7.6-4.4-11.5c-2.1-6.3-2.9-13-5-19.3c-0.5-1.4-2.7-1.2-2.7,0.4c0.2,9.5,4.1,19.7,7.7,28.3c0.9,2.1,2.4,4.5,2.9,6.7
				c0.6,2.3-0.7,5.3-2.9,6.4c-1,0.5-2.6,0.5-3.7,0.7c-6,1-12.1,1.3-18.2,1c-1.4-0.1-2.8,0.1-4-0.8c-1.6-1.3-0.6-1.2,0.8-2.5
				c2-1.9,4-3.7,6-5.6c2.3-2.2,5-4.4,5.7-7.7c0.8-3.8-0.8-8.3-1.6-11.9c-1.2-4.9-2.6-9.8-4.8-14.4C88.3,387.7,86,388.8,86.4,390.3
				L86.4,390.3z"/>
		</g>
	</g>
	<g>
		<g>
			<path class="st1" d="M87.2,425.8c4.5-2.9,9.9-4.1,15.1-2.2c3.7,1.3,5.7,4.6,9.2,6c0.5,0.2,1.1-0.3,1-0.8
				c-0.6-4.4-6.2-7.3-10.1-8.4c-5.8-1.7-11.8-0.4-16.7,2.9C84.2,424.3,85.6,426.8,87.2,425.8L87.2,425.8z"/>
		</g>
	</g>
</g>
</svg>
